<?xml version="1.0" ?><svg enable-background="new 0 0 52 52" id="Layer_1" version="1.1" viewBox="0 0 52 52" xml:space="preserve" xmlns="http://www.w3.org/2000/svg" xmlns:xlink="http://www.w3.org/1999/xlink"><g><g><rect height="6" width="2" x="25" y="2.4978943"/></g><g><rect height="2" width="6" x="3" y="24.4978943"/></g><g><rect height="2" width="6" x="43" y="24.4978943"/></g><g><rect height="1.9997864" transform="matrix(0.7071068 -0.7071068 0.7071068 0.7071068 6.5857339 32.8946686)" width="6.0000496" x="40.0002174" y="7.497757"/></g><g><rect height="6.0000496" transform="matrix(0.7071068 -0.7071068 0.7071068 0.7071068 -3.3726356 8.8530378)" width="1.9997864" x="8.000351" y="5.4976254"/></g><g><path d="M10,39.4222107h14.9995117V27.9120789L22.5,30.4119568l-4.2426758-4.2426758l1.4140625-1.4140625    L22.5,27.5838318l3.4995117-3.5l3.5004883,3.5l2.8286133-2.8286133l1.4140625,1.4140625L29.5,30.4119568l-2.5004883-2.5001221    v11.510376H42v-11.920105c0-8.8300171-7.1799927-16-16-16s-16,7.1699829-16,16V39.4222107z" fill="#3A92CC"/></g><g><path d="M42.9200439,41.4220886H9.0800171C5.1700439,41.4220886,2,44.5921326,2,48.5021057v1h48v-1    C50,44.5921326,46.8300171,41.4220886,42.9200439,41.4220886z"/></g></g></svg>